<svg xmlns="http://www.w3.org/2000/svg" viewBox="0 0 256 257"><defs><linearGradient id="a" x1="0%" x2="105.2%" y1="0%" y2="113.4%"><stop offset="0%" stop-color="#4ade80"/><stop offset="100%" stop-color="#22c55e"/></linearGradient></defs><path fill="url(#a)" d="M255.2 41.7c-1.8-6.3-7.5-10.7-14.1-10.7h-210c-6.6 0-12.3 4.4-14.1 10.7L.4 128l16.6 86.3c1.8 6.3 7.5 10.7 14.1 10.7h210c6.6 0 12.3-4.4 14.1-10.7l16.6-86.3-16.6-86.3zM128 196.5c-37.8 0-68.5-30.7-68.5-68.5S90.2 59.5 128 59.5s68.5 30.7 68.5 68.5-30.7 68.5-68.5 68.5z"/><path fill="#101417" d="M128 72c-30.9 0-56 25.1-56 56s25.1 56 56 56 56-25.1 56-56-25.1-56-56-56z"/><path fill="#4ade80" d="M128 88c-22.1 0-40 17.9-40 40s17.9 40 40 40 40-17.9 40-40-17.9-40-40-40z"/></svg>